Coordinates
version=1
nRows=8
nColumns=36
inDegrees=yes

Units are S.I. units (second, meters, Newtons, ...)
If the header above contains a line with 'inDegrees', this indicates whether rotational values are in degrees (yes) or radians (no).

endheader
time	pelvis_tilt	pelvis_list	pelvis_rotation	pelvis_tx	pelvis_ty	pelvis_tz	hip_flexion_r	hip_adduction_r	hip_rotation_r	knee_angle_r	knee_angle_r_beta	ankle_angle_r	subtalar_angle_r	mtp_angle_r	hip_flexion_l	hip_adduction_l	hip_rotation_l	knee_angle_l	knee_angle_l_beta	ankle_angle_l	subtalar_angle_l	mtp_angle_l	lumbar_extension	lumbar_bending	lumbar_rotation	arm_flex_r	arm_add_r	arm_rot_r	elbow_flex_r	pro_sup_r	arm_flex_l	arm_add_l	arm_rot_l	elbow_flex_l	pro_sup_l
      0.00000000	      3.01615980	      0.64860996	      2.12234887	     -0.86678650	      1.27010467	     -0.10314293	     -4.00494748	      1.62555284	      2.81927866	      9.13127021	      0.15937073	      3.45725036	    -13.53063850	     -5.16064362	     -5.41925803	      3.29995078	      2.48206823	      4.71628558	      0.08231471	      8.86460902	     -3.38286443	     -5.16064362	    -12.85479821	      2.03655137	     -2.29304982	     10.50928495	     -7.98136517	     30.93165497	     21.18859295	     68.22290845	      4.10802137	     -7.61454055	     16.21242693	     26.12675953	     64.12001451
      0.00416670	      0.92784366	      0.67946289	      2.59222699	     -0.86585644	      1.26535175	     -0.10420985	     -2.11850047	      1.96737090	      4.08718155	      8.17557585	      0.14269072	      4.18930760	    -11.20047053	     -5.78404372	     -3.41103705	      3.72138830	      4.38705769	      4.36845531	      0.07624393	      7.29355554	     -3.63974588	     -5.78404372	     -9.42069209	      2.08941757	     -1.92385647	      9.04642550	     -7.63794360	     27.10220613	     21.04908304	     68.43384707	      3.90736998	     -7.08931956	     16.24199991	     25.32715711	     64.87868722
      0.00833330	      0.08849672	      0.95465837	      2.55286718	     -0.86509502	      1.26652847	     -0.10353357	     -1.71610178	      1.72713850	      3.88054869	      7.00386935	      0.12224058	      4.43731678	    -10.76724957	     -6.67414888	     -2.65090613	      4.14090750	      4.48793097	      4.10600749	      0.07166335	      7.43916839	     -2.41870173	     -6.67414888	     -8.44428521	      1.37938768	     -1.26707060	      7.70925596	     -6.64299530	     18.87058557	     21.84626829	     78.35503883	      4.14557770	     -6.96010826	     14.70481626	     25.03646715	     69.15706242
      0.01250000	      0.33697118	      1.20333895	      2.57129285	     -0.86496072	      1.26639516	     -0.10392011	     -2.24431448	      1.43758588	      4.25470625	      6.49766096	      0.11340558	      4.56935869	    -10.62908159	     -6.72483675	     -3.37777860	      4.52622232	      5.13867828	      3.33618793	      0.05822746	      6.97765550	     -2.79234659	     -6.72483675	     -8.78845901	      0.89457510	     -1.09379488	      7.39716290	     -6.28355028	     17.82902931	     21.95189215	     77.65421134	      4.25915778	     -6.97103158	     13.92302061	     24.95404420	     68.70790939
      0.01666670	      0.39798982	      1.30393793	      2.57081124	     -0.86543673	      1.26798434	     -0.10309416	     -2.50357936	      1.35470900	      4.72605418	      6.14720842	      0.10728903	      4.77898796	    -10.48260079	     -6.79572659	     -3.73383034	      4.71107197	      5.73280248	      2.74777801	      0.04795777	      6.87112731	     -3.05655233	     -6.79572659	     -9.01353466	      0.66322749	     -0.79525200	      6.97096847	     -6.07176895	     16.48211405	     22.50569986	     76.84510578	      4.37756979	     -6.89073664	     12.99786383	     24.99399254	     68.24857712
      0.02083330	      0.63268685	      1.39810646	      2.56753026	     -0.86589536	      1.26775806	     -0.10365676	     -2.88710732	      1.24770324	      5.21762375	      5.91633523	      0.10325953	      4.90072080	    -10.64344682	     -6.83137282	     -4.12517003	      4.82189925	      6.10913731	      2.44661316	      0.04270146	      6.80248729	     -3.35285287	     -6.83137282	     -9.41095104	      0.55169724	     -0.42503770	      6.86162411	     -6.09308752	     16.11083786	     22.70188996	     76.50432298	      4.61536512	     -6.80339476	     12.62628061	     24.98212468	     68.06449642
      0.02500000	      0.73024622	      1.43288292	      2.51676802	     -0.86591967	      1.26589823	     -0.10380628	     -3.07271012	      1.17805706	      5.74374715	      5.76768244	      0.10066505	      4.89742317	    -11.17294787	     -7.15513925	     -4.30680097	      4.86984916	      6.66403104	      2.24839435	      0.03924188	      6.76325616	     -3.81935873	     -7.15513925	     -9.64822483	      0.51213598	     -0.09250061	      6.73316385	     -6.24703947	     16.51976450	     23.18774693	     73.17829706	      4.78250495	     -6.68244148	     12.47787696	     25.11052565	     66.56915999
      0.02916670	      0.89006639	      1.45602340	      2.44852449	     -0.86600916	      1.26636966	     -0.10391542	     -3.29284453	      1.13298233	      5.88513676	      5.65717867	      0.09873639	      4.71591792	    -11.48279633	     -7.20965084	     -4.48885516	      4.91047311	      6.83986396	      2.20514403	      0.03848702	      7.11058069	     -3.63196472	     -7.20965084	     -9.83840014	      0.51721247	      0.15287560	      6.82584409	     -6.33558905	     16.86056575	     23.14008091	     72.59716337	      5.02962181	     -6.50031234	     12.33900538	     24.83727618	     66.28887501
